<svg width="128" height="128" viewBox="0 0 128 128" fill="none" xmlns="http://www.w3.org/2000/svg">
  <rect width="128" height="128" rx="28" fill="#06111D"/>
  <path d="M8 96C28 44 74 20 120 19V128H8V96Z" fill="url(#a)" opacity=".78"/>
  <path d="M14 18H114C119.523 18 124 22.4772 124 28V100C124 105.523 119.523 110 114 110H14C8.47715 110 4 105.523 4 100V28C4 22.4772 8.47715 18 14 18Z" stroke="#22D3EE" stroke-opacity=".45" stroke-width="3"/>
  <path d="M27 36H49C64 36 73 46 73 64C73 82 64 92 49 92H27V36ZM42 50V78H49C55 78 58 73 58 64C58 55 55 50 49 50H42Z" fill="#FB923C"/>
  <path d="M58 36H80C95 36 104 46 104 64C104 82 95 92 80 92H58V36ZM73 50V78H80C86 78 89 73 89 64C89 55 86 50 80 50H73Z" fill="#67E8F9"/>
  <path d="M20 102L108 26" stroke="#FACC15" stroke-opacity=".55" stroke-width="4" stroke-linecap="round"/>
  <defs>
    <linearGradient id="a" x1="12" y1="128" x2="116" y2="22" gradientUnits="userSpaceOnUse">
      <stop stop-color="#0EA5E9"/>
      <stop offset=".45" stop-color="#F97316"/>
      <stop offset="1" stop-color="#22C55E"/>
    </linearGradient>
  </defs>
</svg>
