<?xml version="1.0" encoding="UTF-8"?>
<svg xmlns="http://www.w3.org/2000/svg" width="1115" height="732" viewBox="0 0 1115 732">
  <path d="M 1034.0 491.0 L 1031.0 492.0 L 1028.0 495.0 L 1025.0 512.0 L 1013.0 526.0 L 995.0 530.0 L 992.0 533.0 L 991.0 538.0 L 993.0 543.0 L 996.0 545.0 L 1002.0 547.0 L 1007.0 547.0 L 1018.0 551.0 L 1022.0 555.0 L 1025.0 562.0 L 1027.0 579.0 L 1031.0 584.0 L 1037.0 585.0 L 1041.0 583.0 L 1045.0 577.0 L 1046.0 565.0 L 1050.0 552.0 L 1056.0 548.0 L 1066.0 547.0 L 1076.0 543.0 L 1078.0 540.0 L 1078.0 534.0 L 1076.0 531.0 L 1072.0 529.0 L 1061.0 528.0 L 1053.0 525.0 L 1049.0 521.0 L 1047.0 515.0 L 1045.0 498.0 L 1043.0 494.0 L 1040.0 492.0 Z M 156.0 441.0 L 151.0 443.0 L 149.0 446.0 L 146.0 463.0 L 131.0 474.0 L 126.0 481.0 L 116.0 484.0 L 113.0 487.0 L 112.0 492.0 L 115.0 498.0 L 121.0 501.0 L 133.0 503.0 L 143.0 509.0 L 146.0 516.0 L 148.0 532.0 L 150.0 537.0 L 155.0 540.0 L 159.0 540.0 L 163.0 538.0 L 166.0 533.0 L 168.0 516.0 L 172.0 506.0 L 177.0 503.0 L 189.0 501.0 L 198.0 497.0 L 201.0 491.0 L 198.0 485.0 L 194.0 483.0 L 184.0 482.0 L 178.0 480.0 L 172.0 476.0 L 168.0 466.0 L 166.0 448.0 L 163.0 443.0 Z M 0.0 708.0 L 0.0 725.0 L 5.0 726.0 L 159.0 727.0 L 162.0 731.0 L 454.0 731.0 L 456.0 729.0 L 469.0 726.0 L 492.0 717.0 L 506.0 710.0 L 522.0 700.0 L 544.0 682.0 L 565.0 660.0 L 574.0 648.0 L 575.0 650.0 L 556.0 676.0 L 530.0 702.0 L 507.0 719.0 L 505.0 724.0 L 505.0 731.0 L 819.0 731.0 L 821.0 729.0 L 828.0 728.0 L 843.0 723.0 L 865.0 713.0 L 867.0 715.0 L 866.0 720.0 L 868.0 725.0 L 877.0 729.0 L 1087.0 728.0 L 1104.0 729.0 L 1111.0 726.0 L 1114.0 726.0 L 1114.0 712.0 L 1108.0 710.0 L 1096.0 710.0 L 979.0 697.0 L 968.0 691.0 L 955.0 688.0 L 945.0 688.0 L 943.0 686.0 L 944.0 670.0 L 942.0 665.0 L 936.0 662.0 L 929.0 661.0 L 948.0 635.0 L 965.0 602.0 L 977.0 563.0 L 981.0 542.0 L 983.0 518.0 L 993.0 508.0 L 1004.0 502.0 L 1013.0 499.0 L 1018.0 494.0 L 1017.0 485.0 L 1012.0 482.0 L 1000.0 478.0 L 994.0 474.0 L 987.0 466.0 L 982.0 455.0 L 978.0 452.0 L 978.0 450.0 L 981.0 447.0 L 983.0 442.0 L 982.0 424.0 L 988.0 417.0 L 992.0 404.0 L 991.0 390.0 L 989.0 386.0 L 990.0 379.0 L 985.0 370.0 L 985.0 364.0 L 981.0 355.0 L 978.0 341.0 L 969.0 327.0 L 963.0 310.0 L 950.0 292.0 L 944.0 286.0 L 938.0 283.0 L 922.0 266.0 L 910.0 258.0 L 901.0 255.0 L 895.0 251.0 L 879.0 244.0 L 874.0 244.0 L 856.0 240.0 L 843.0 235.0 L 836.0 235.0 L 827.0 232.0 L 813.0 231.0 L 805.0 228.0 L 794.0 227.0 L 767.0 227.0 L 758.0 231.0 L 742.0 232.0 L 737.0 234.0 L 731.0 234.0 L 723.0 237.0 L 697.0 236.0 L 703.0 230.0 L 702.0 222.0 L 682.0 207.0 L 655.0 192.0 L 631.0 183.0 L 611.0 179.0 L 607.0 177.0 L 598.0 178.0 L 593.0 185.0 L 589.0 175.0 L 590.0 172.0 L 602.0 173.0 L 607.0 175.0 L 617.0 176.0 L 636.0 181.0 L 662.0 191.0 L 680.0 200.0 L 707.0 217.0 L 722.0 229.0 L 729.0 230.0 L 736.0 225.0 L 743.0 207.0 L 760.0 173.0 L 784.0 131.0 L 801.0 105.0 L 803.0 99.0 L 801.0 94.0 L 795.0 91.0 L 790.0 91.0 L 762.0 104.0 L 718.0 120.0 L 715.0 126.0 L 717.0 134.0 L 721.0 136.0 L 727.0 142.0 L 728.0 146.0 L 720.0 154.0 L 713.0 158.0 L 707.0 160.0 L 699.0 160.0 L 692.0 157.0 L 687.0 153.0 L 681.0 143.0 L 678.0 132.0 L 677.0 113.0 L 684.0 106.0 L 687.0 101.0 L 688.0 91.0 L 686.0 85.0 L 675.0 74.0 L 667.0 72.0 L 657.0 72.0 L 648.0 76.0 L 642.0 84.0 L 641.0 87.0 L 641.0 101.0 L 643.0 105.0 L 643.0 109.0 L 638.0 118.0 L 632.0 124.0 L 624.0 129.0 L 618.0 131.0 L 607.0 130.0 L 601.0 127.0 L 595.0 122.0 L 588.0 109.0 L 588.0 97.0 L 591.0 94.0 L 600.0 89.0 L 602.0 84.0 L 601.0 79.0 L 589.0 59.0 L 567.0 13.0 L 564.0 9.0 L 559.0 7.0 L 552.0 8.0 L 548.0 12.0 L 534.0 42.0 L 513.0 80.0 L 513.0 85.0 L 515.0 90.0 L 527.0 99.0 L 527.0 106.0 L 525.0 112.0 L 517.0 122.0 L 508.0 123.0 L 499.0 131.0 L 493.0 131.0 L 484.0 127.0 L 476.0 119.0 L 471.0 110.0 L 471.0 105.0 L 474.0 98.0 L 473.0 87.0 L 471.0 83.0 L 459.0 71.0 L 452.0 68.0 L 446.0 68.0 L 441.0 70.0 L 431.0 79.0 L 427.0 89.0 L 428.0 103.0 L 431.0 109.0 L 438.0 116.0 L 437.0 131.0 L 433.0 143.0 L 430.0 148.0 L 422.0 156.0 L 413.0 160.0 L 405.0 160.0 L 393.0 155.0 L 387.0 149.0 L 387.0 143.0 L 389.0 139.0 L 397.0 131.0 L 397.0 124.0 L 392.0 119.0 L 372.0 113.0 L 322.0 92.0 L 314.0 93.0 L 311.0 96.0 L 310.0 103.0 L 312.0 108.0 L 342.0 153.0 L 357.0 179.0 L 373.0 211.0 L 378.0 225.0 L 380.0 228.0 L 384.0 230.0 L 391.0 229.0 L 413.0 212.0 L 431.0 201.0 L 455.0 189.0 L 477.0 181.0 L 519.0 172.0 L 525.0 173.0 L 522.0 186.0 L 518.0 179.0 L 513.0 177.0 L 505.0 177.0 L 501.0 179.0 L 492.0 180.0 L 478.0 184.0 L 451.0 195.0 L 435.0 204.0 L 413.0 220.0 L 411.0 225.0 L 411.0 229.0 L 415.0 236.0 L 379.0 237.0 L 376.0 235.0 L 366.0 233.0 L 350.0 233.0 L 343.0 231.0 L 330.0 231.0 L 311.0 227.0 L 281.0 225.0 L 249.0 225.0 L 217.0 228.0 L 208.0 226.0 L 190.0 225.0 L 168.0 232.0 L 159.0 237.0 L 150.0 240.0 L 139.0 241.0 L 136.0 244.0 L 135.0 250.0 L 137.0 255.0 L 149.0 268.0 L 199.0 330.0 L 204.0 339.0 L 203.0 588.0 L 204.0 637.0 L 203.0 642.0 L 195.0 649.0 L 169.0 667.0 L 158.0 672.0 L 139.0 677.0 L 127.0 684.0 L 112.0 689.0 L 100.0 695.0 Z M 265.0 660.0 L 267.0 673.0 L 268.0 675.0 L 274.0 679.0 L 252.0 679.0 L 252.0 677.0 Z M 617.0 536.0 L 618.0 671.0 L 620.0 675.0 L 625.0 679.0 L 611.0 679.0 L 615.0 669.0 L 615.0 610.0 L 613.0 606.0 L 610.0 604.0 L 599.0 603.0 L 608.0 577.0 L 613.0 556.0 L 615.0 539.0 Z M 932.0 483.0 L 925.0 487.0 L 926.0 480.0 L 928.0 480.0 Z M 566.0 480.0 L 568.0 483.0 L 563.0 487.0 L 563.0 480.0 Z M 692.0 357.0 L 769.0 357.0 L 783.0 359.0 L 796.0 363.0 L 810.0 370.0 L 821.0 378.0 L 830.0 387.0 L 838.0 397.0 L 847.0 415.0 L 853.0 436.0 L 856.0 456.0 L 857.0 474.0 L 856.0 505.0 L 850.0 537.0 L 845.0 552.0 L 839.0 565.0 L 826.0 584.0 L 810.0 599.0 L 789.0 611.0 L 774.0 616.0 L 758.0 619.0 L 692.0 619.0 L 690.0 617.0 L 691.0 476.0 L 690.0 359.0 Z M 340.0 357.0 L 410.0 357.0 L 430.0 361.0 L 446.0 369.0 L 460.0 380.0 L 470.0 391.0 L 477.0 401.0 L 483.0 413.0 L 488.0 427.0 L 494.0 460.0 L 494.0 505.0 L 491.0 525.0 L 483.0 551.0 L 476.0 566.0 L 469.0 577.0 L 452.0 596.0 L 438.0 606.0 L 413.0 616.0 L 403.0 613.0 L 386.0 613.0 L 362.0 615.0 L 352.0 615.0 L 338.0 613.0 L 338.0 359.0 Z M 249.0 297.0 L 250.0 295.0 L 266.0 296.0 L 262.0 300.0 L 258.0 308.0 Z M 530.0 274.0 L 546.0 287.0 L 568.0 310.0 L 585.0 333.0 L 596.0 354.0 L 599.0 358.0 L 603.0 360.0 L 607.0 360.0 L 611.0 358.0 L 615.0 352.0 L 614.0 299.0 L 615.0 295.0 L 620.0 296.0 L 618.0 301.0 L 617.0 442.0 L 615.0 439.0 L 615.0 428.0 L 607.0 391.0 L 600.0 371.0 L 591.0 352.0 L 572.0 322.0 L 562.0 310.0 L 529.0 278.0 L 528.0 276.0 Z M 509.0 260.0 L 518.0 265.0 L 522.0 269.0 L 517.0 270.0 L 513.0 268.0 L 508.0 263.0 Z M 416.0 237.0 L 424.0 235.0 L 438.0 228.0 L 467.0 218.0 L 512.0 210.0 L 518.0 207.0 L 523.0 201.0 L 527.0 209.0 L 532.0 212.0 L 539.0 212.0 L 546.0 208.0 L 553.0 213.0 L 559.0 213.0 L 566.0 208.0 L 568.0 208.0 L 574.0 212.0 L 580.0 212.0 L 584.0 210.0 L 592.0 201.0 L 595.0 207.0 L 600.0 210.0 L 633.0 215.0 L 653.0 220.0 L 682.0 231.0 L 690.0 236.0 L 685.0 239.0 L 656.0 239.0 L 651.0 237.0 L 616.0 236.0 L 591.0 237.0 L 584.0 235.0 L 550.0 235.0 L 545.0 237.0 L 534.0 237.0 L 529.0 239.0 L 504.0 239.0 L 501.0 240.0 L 498.0 243.0 L 497.0 256.0 L 493.0 255.0 L 484.0 249.0 L 476.0 248.0 L 463.0 242.0 L 420.0 240.0 Z" fill="#FFFFFF" fill-rule="evenodd" clip-rule="evenodd"/>
</svg>
